<svg width="150" height="30" viewBox="0 0 150 30" fill="none" xmlns="http://www.w3.org/2000/svg">
  <path d="M10 5C7.23858 5 5 7.23858 5 10V20C5 22.7614 7.23858 25 10 25H20C22.7614 25 25 22.7614 25 20V10C25 7.23858 22.7614 5 20 5H10Z" fill="#2563EB"/>
  <path d="M10.5 15L15 10.5L19.5 15L15 19.5L10.5 15Z" fill="white"/>
  <path d="M35 8H40V22H35V8Z" fill="#1E293B"/>
  <path d="M44 8H49L55 16V8H60V22H55L49 14V22H44V8Z" fill="#1E293B"/>
  <path d="M63 8H76V12H68V13H74V16H68V18H76V22H63V8Z" fill="#1E293B"/>
  <path d="M78 8H83L86 18L89 8H94L88 22H84L78 8Z" fill="#1E293B"/>
  <path d="M96 8H109V12H101V13H107V16H101V18H109V22H96V8Z" fill="#1E293B"/>
  <path d="M111 8H116V18H124V22H111V8Z" fill="#1E293B"/>
  <path d="M125 8H142V12H138V22H133V12H129V8H125Z" fill="#1E293B"/>
  <path d="M142 15C142 11.134 145.134 8 149 8" stroke="#2563EB" stroke-width="2" stroke-linecap="round"/>
  <path d="M142 15C142 18.866 145.134 22 149 22" stroke="#2563EB" stroke-width="2" stroke-linecap="round"/>
</svg> 